:SAMPLES-PER-SECOND 30
:FULLY-SPECIFIED
:DEGREES
294
root  12.6964 38.9722 -33.2857 74.9309 84.8282 75.9886
RightUpLeg  -21.0174 -8.01367 -6.14575
RightLeg  -2.35521 -11.9923 5.81497
RightFoot  -1.08661 -0.556724 6.08151
RightToes  0.000482159 0.542163 -0.142577
Spine  14.9488 -0.896038 -3.64908
Spine1  13.0804 -1.40427 -0.395908
HEad  9.95491 1.57643 -0.671768
LeftShoulder1  8.57585 -12.8968 -45.5885
LeftArm  -9.73001 5.95944 -26.0882
LeftForeArm  20.3138 -23.45 -3.96799
LeftHand  -0.25398 0.0180481 5.50724
RightShoulder  6.15622 10.5177 37.8662
RightArm  4.57007 -10.8049 36.1575
RightForeArm  -2.17985 19.4639 5.62801
RightHand  -1.40138 3.49414 -18.4713
LeftUpLeg  12.5472 5.27839 -4.05344
LeftLeg  9.88334 18.3312 -2.80469
LeftFoot  -19.7674 -0.135569 -3.47053
LeftToes  1.06247e-005 4.65855e-005 -8.18501e-006
295
root  14.1191 38.6553 -33.2292 90.3159 85.4342 91.6157
RightUpLeg  -21.7925 -8.06337 -5.69503
RightLeg  -1.39786 -11.4819 5.61173
RightFoot  0.161176 -0.457911 4.63797
RightToes  0.000482159 0.542163 -0.142577
Spine  15.3594 -1.35947 -2.61528
Spine1  13.3647 -2.09761 0.429787
HEad  10.1546 0.904445 -1.21832
LeftShoulder1  8.60041 -13.0295 -45.3434
LeftArm  -12.0257 4.55762 -26.3532
LeftForeArm  21.606 -26.6668 -4.56942
LeftHand  -0.25398 0.0180481 5.50724
RightShoulder  6.15064 10.5396 37.7621
RightArm  -0.171784 -12.0446 36.0769
RightForeArm  3.17236 15.2689 6.67046
RightHand  -1.23983 2.94275 -17.4388
LeftUpLeg  14.5806 6.82431 -2.74672
LeftLeg  11.3649 15.6934 -1.88199
LeftFoot  -21.1333 -0.188037 -3.68123
LeftToes  1.06247e-005 4.65855e-005 -8.18501e-006
296
root  15.5989 38.3781 -33.1573 104.499 86.5708 106.257
RightUpLeg  -23.3306 -8.53161 -4.00002
RightLeg  4.61816 -11.7154 4.30728
RightFoot  4.48984 -0.0475158 0.660035
RightToes  0.000482159 0.542163 -0.142577
Spine  16.3605 -1.80278 -0.239584
Spine1  13.4374 -2.52112 0.971292
HEad  10.1553 0.361442 -2.08833
LeftShoulder1  8.61051 -13.0516 -45.3359
LeftArm  -13.5331 3.67789 -26.5441
LeftForeArm  22.5907 -30.0834 -5.29866
LeftHand  -0.25398 0.0180481 5.50724
RightShoulder  6.19088 10.5773 37.9239
RightArm  -4.26185 -13.0604 35.4103
RightForeArm  7.28166 11.7665 7.18593
RightHand  -1.09821 2.28891 -16.7498
LeftUpLeg  16.3493 10.7602 0.280952
LeftLeg  14.2495 10.4042 -0.138511
LeftFoot  -22.2912 -0.384629 -5.31425
LeftToes  1.06247e-005 4.65855e-005 -8.18501e-006
297
root  17.112 38.1304 -33.0954 124.307 88.1397 126.875
RightUpLeg  -24.904 -12.8661 0.124663
RightLeg  11.8776 -7.11814 2.02157
RightFoot  8.99505 0.623343 -3.18457
RightToes  0.000482159 0.542163 -0.142577
Spine  18.1318 -2.34936 3.08024
Spine1  13.1919 -2.53109 0.847807
HEad  9.91617 0.321887 -3.20899
LeftShoulder1  8.61818 -12.9969 -45.5336
LeftArm  -14.5728 3.24502 -26.6772
LeftForeArm  22.6814 -32.5914 -5.89891
LeftHand  -0.25398 0.0180481 5.50724
RightShoulder  6.34243 10.7231 38.5135
RightArm  -6.82969 -13.4135 34.162
RightForeArm  9.67002 9.15821 7.09836
RightHand  -0.980522 1.73349 -16.1032
LeftUpLeg  17.3987 14.664 4.09684
LeftLeg  19.383 4.64158 1.82957
LeftFoot  -22.4235 -0.888584 -10.6939
LeftToes  1.06247e-005 4.65855e-005 -8.18501e-006
298
root  18.5691 37.9919 -33.0403 179.633 89.1591 -177.123
RightUpLeg  -26.0039 -17.9441 4.48352
RightLeg  17.8101 -0.904983 0.32658
RightFoot  9.26875 0.984734 -5.08287
RightToes  0.000482159 0.542163 -0.142577
Spine  20.0819 -3.03144 6.35588
Spine1  12.9291 -2.44131 0.652162
HEad  9.68092 0.711729 -4.41305
LeftShoulder1  8.63653 -13.0092 -45.5992
LeftArm  -15.1251 3.08127 -27.0641
LeftForeArm  21.6294 -33.2818 -6.13571
LeftHand  -0.25398 0.0180481 5.50724
RightShoulder  6.50765 10.9601 38.9093
RightArm  -8.53948 -12.9736 33.1616
RightForeArm  10.8976 7.30789 6.6553
RightHand  -0.882644 1.35713 -15.2974
LeftUpLeg  15.5726 12.8998 6.01571
LeftLeg  28.2062 5.98502 3.96091
LeftFoot  -18.0683 -0.81347 -15.8561
LeftToes  1.06247e-005 4.65855e-005 -8.18501e-006
299
root  19.932 37.9477 -32.9541 -114.984 88.2884 -111.729
RightUpLeg  -26.3196 -19.3497 6.36905
RightLeg  22.3858 0.736516 -0.00953462
RightFoot  5.6334 0.918383 -5.88841
RightToes  0.000482159 0.542163 -0.142577
Spine  21.4274 -3.52962 8.75722
Spine1  12.8692 -2.46444 1.21542
HEad  9.69648 0.938199 -5.39415
LeftShoulder1  8.71776 -13.1889 -45.5304
LeftArm  -14.8669 2.8992 -27.6009
LeftForeArm  20.4535 -32.5374 -6.01686
LeftHand  -0.25398 0.0180481 5.50724
RightShoulder  6.52648 11.1504 38.4714
RightArm  -9.84518 -12.041 33.0349
RightForeArm  10.6718 6.47059 6.24183
RightHand  -0.790068 0.952446 -14.5498
LeftUpLeg  9.74672 11.3959 7.08425
LeftLeg  40.7913 8.50441 8.20289
LeftFoot  -7.46635 0.413079 -13.8199
LeftToes  1.06247e-005 4.65855e-005 -8.18501e-006
300
root  21.1839 37.9071 -32.8333 -108.553 87.1285 -105.767
RightUpLeg  -26.2669 -19.4498 7.3311
RightLeg  25.7834 0.423132 -0.0139306
RightFoot  1.82532 0.7571 -6.43453
RightToes  0.000482159 0.542163 -0.142577
Spine  22.2629 -3.70879 10.4063
Spine1  12.9293 -2.42101 2.27284
HEad  9.84466 0.628142 -5.80211
LeftShoulder1  8.8784 -13.458 -45.6377
LeftArm  -14.0122 2.54253 -27.7148
LeftForeArm  20.8437 -31.6465 -5.77261
LeftHand  -0.25398 0.0180481 5.50724
RightShoulder  6.42293 11.2129 37.6117
RightArm  -10.5586 -10.7305 33.2814
RightForeArm  9.01752 7.14562 6.2491
RightHand  -0.700327 0.430726 -14.0166
LeftUpLeg  1.68676 10.4937 7.50165
LeftLeg  53.0504 8.4106 12.1606
LeftFoot  3.73035 0.683478 -5.16847
LeftToes  1.06247e-005 4.65855e-005 -8.18501e-006
301
root  22.3809 37.9578 -32.714 -100.552 86.4527 -98.0976
RightUpLeg  -25.4128 -19.3018 7.85274
RightLeg  27.6716 0.245787 -0.104199
RightFoot  -0.545371 0.6123 -6.49621
RightToes  0.000482159 0.542163 -0.142577
Spine  23.2199 -3.7134 11.4576
Spine1  13.0248 -2.1803 2.8113
HEad  9.71487 0.126257 -5.65452
LeftShoulder1  9.04069 -13.6662 -45.9186
LeftArm  -13.1693 2.13976 -27.2248
LeftForeArm  23.1161 -31.303 -5.55977
LeftHand  -0.25398 0.0180481 5.50724
RightShoulder  6.35441 11.203 37.19
RightArm  -9.97538 -8.71626 33.154
RightForeArm  6.64307 9.45151 6.57268
RightHand  -0.654807 0.149225 -13.7489
LeftUpLeg  -5.75628 10.1539 7.34703
LeftLeg  61.5678 6.01423 12.3979
LeftFoot  7.48471 -0.170919 0.953854
LeftToes  1.06247e-005 4.65855e-005 -8.18501e-006
302
root  23.618 38.2283 -32.6143 -91.4489 86.4939 -89.0529
RightUpLeg  -23.1549 -18.9405 7.32308
RightLeg  27.681 0.368053 -0.0370268
RightFoot  -2.46459 0.434918 -5.79432
RightToes  0.000482159 0.542163 -0.142577
Spine  24.2748 -3.65891 11.5357
Spine1  13.2108 -1.93958 2.57363
HEad  9.11183 -0.0501518 -5.40631
LeftShoulder1  9.13585 -13.7989 -46.0504
LeftArm  -12.4156 1.92481 -26.6105
LeftForeArm  25.5245 -31.1119 -5.37806
LeftHand  -0.25398 0.0180481 5.50724
RightShoulder  6.34712 11.1824 37.2006
RightArm  -7.57104 -5.78327 32.7953
RightForeArm  3.75107 12.8678 6.59211
RightHand  -0.705245 0.493158 -13.9665
LeftUpLeg  -11.652 10.3677 6.4914
LeftLeg  65.4369 3.80456 9.76547
LeftFoot  4.98267 -0.225634 1.27277
LeftToes  1.06247e-005 4.65855e-005 -8.18501e-006
303
root  24.8506 38.5363 -32.5314 -82.6607 86.8356 -80.4391
RightUpLeg  -20.6906 -18.9404 6.42154
RightLeg  27.0571 0.783816 0.188232
RightFoot  -4.52412 0.263865 -4.94754
RightToes  0.000482159 0.542163 -0.142577
Spine  24.9987 -3.55218 11.1016
Spine1  13.496 -1.84852 2.33768
HEad  8.3019 0.041794 -5.41169
LeftShoulder1  9.20098 -13.9548 -45.9618
LeftArm  -11.4428 1.95249 -26.2336
LeftForeArm  26.3622 -30.5315 -5.19363
LeftHand  -0.25398 0.0180481 5.50724
RightShoulder  6.29043 11.125 36.989
RightArm  -4.34703 -2.25637 32.7032
RightForeArm  0.419916 16.4681 6.0722
RightHand  -0.855749 1.34655 -14.8522
LeftUpLeg  -16.7976 10.7918 5.30715
LeftLeg  65.2259 2.63559 6.94966
LeftFoot  1.74368 0.156495 -1.42571
LeftToes  1.06247e-005 4.65855e-005 -8.18501e-006
304
root  26.0618 38.8159 -32.4457 -72.306 87.2806 -70.4396
RightUpLeg  -18.4404 -19.1645 5.43429
RightLeg  26.2729 1.23015 0.432524
RightFoot  -5.94085 0.17617 -4.5945
RightToes  0.000482159 0.542163 -0.142577
Spine  25.4761 -3.2587 10.4384
Spine1  13.5957 -1.74013 2.25399
HEad  7.61352 -0.028768 -5.60107
LeftShoulder1  9.30203 -14.1712 -45.8955
LeftArm  -10.3984 2.00225 -25.8902
LeftForeArm  25.7001 -29.5298 -4.99657
LeftHand  -0.25398 0.0180481 5.50724
RightShoulder  6.15199 11.0181 36.3703
RightArm  -1.7685 1.37143 32.8099
RightForeArm  -3.00662 19.6192 5.47745
RightHand  -1.05467 2.2638 -16.1494
LeftUpLeg  -21.2865 11.4116 3.74341
LeftLeg  61.5526 2.877 6.30844
LeftFoot  0.137166 0.220183 -2.1644
LeftToes  1.06247e-005 4.65855e-005 -8.18501e-006
